# xmcd
#
# Track frame offsets: 
#        150
#        21619
#        44113
#        59822
#        80968
#        97687
#        114977
#        133215
#        149309
#        167963
#        185330
#        205237
#        223119
#        240316
#
# Disc length: 3426 seconds
#
# Revision: 1
# Processed by: cddbd v1.5.2PL0 Copyright (c) Steve Scherf et al.
# Submitted via: ExactAudioCopy v1.3
#
DISCID=da0d600e
DTITLE=Lana Del Rey - Born To Die (Target Edition)
DYEAR=2012
DGENRE=Alternative
TTITLE0=Born To Die
TTITLE1=Off To The Races
TTITLE2=Blue Jeans
TTITLE3=Video Games
TTITLE4=Diet Mountain Dew
TTITLE5=National Anthem
TTITLE6=Dark Paradise
TTITLE7=Radio
TTITLE8=Carmen
TTITLE9=Million Dollar Man
TTITLE10=Summertime Sadness
TTITLE11=This Is What Makes Us Girls
TTITLE12=Without You
TTITLE13=Lolita
EXTD=
EXTT0=
EXTT1=
EXTT2=
EXTT3=
EXTT4=
EXTT5=
EXTT6=
EXTT7=
EXTT8=
EXTT9=
EXTT10=
EXTT11=
EXTT12=
EXTT13=
PLAYORDER=
